<?xml version="1.0" standalone="no"?>
<!DOCTYPE svg PUBLIC "-//W3C//DTD SVG 20010904//EN"
 "http://www.w3.org/TR/2001/REC-SVG-20010904/DTD/svg10.dtd">
<svg version="1.0" xmlns="http://www.w3.org/2000/svg"
 width="304.000000pt" height="63.000000pt" viewBox="0 0 304.000000 63.000000"
 preserveAspectRatio="xMidYMid meet">

<g transform="translate(0.000000,63.000000) scale(0.100000,-0.100000)"
fill="#000000" stroke="none">
<path d="M104 552 c-17 -15 -45 -34 -62 -44 l-30 -16 2 -106 c3 -93 6 -109 25
-129 11 -13 21 -32 21 -43 0 -15 2 -16 9 -5 7 11 13 8 26 -13 29 -44 71 -60
155 -60 86 1 179 31 216 71 16 17 24 20 27 11 3 -7 6 8 6 33 1 39 5 48 22 52
20 5 21 10 14 84 -4 43 -10 83 -14 89 -3 7 -31 34 -61 60 l-55 49 38 -45 c44
-52 46 -87 7 -107 -84 -42 -98 -45 -150 -34 -28 6 -64 11 -80 11 -42 0 -125
19 -144 33 -22 16 -10 50 34 101 38 43 36 45 -6 8z m60 -291 c9 -14 -20 -32
-53 -33 -56 -2 -55 19 1 32 46 11 46 11 52 1z"/>
<path d="M323 453 c9 -2 23 -2 30 0 6 3 -1 5 -18 5 -16 0 -22 -2 -12 -5z"/>
<path d="M453 129 c-12 -21 -17 -37 -12 -33 11 6 42 64 37 69 -2 2 -13 -14
-25 -36z"/>
<path d="M140 65 c13 -14 26 -25 28 -25 3 0 -5 11 -18 25 -13 14 -26 25 -28
25 -3 0 5 -11 18 -25z"/>
<path d="M409 63 c-13 -16 -12 -17 4 -4 16 13 21 21 13 21 -2 0 -10 -8 -17
-17z"/>
<path d="M194 26 c11 -9 24 -16 30 -16 12 0 7 5 -24 19 -24 11 -24 11 -6 -3z"/>
<path d="M263 3 c9 -2 25 -2 35 0 9 3 1 5 -18 5 -19 0 -27 -2 -17 -5z"/>
</g>
</svg>
